<svg xmlns="http://www.w3.org/2000/svg" viewBox="0 0 1024 1024"><defs><style>.cls-1{fill:#f2f2f2}.cls-2{fill:#666}</style></defs><circle cx="512" cy="512" r="512"/><circle class="cls-1" cx="509.96" cy="403.05" r="20.71"/><circle class="cls-1" cx="509.96" cy="526.18" r="20.71"/><circle class="cls-1" cx="509.96" cy="649.33" r="20.71"/><path class="cls-1" d="M385.26 400.59c-6.18 3.55-11.26.63-11.26-6.5v-79.65c-12.58-44-22.4-78-25.3-88.19h-51.27l-85.22 78.9 56 48.37-42.38 45.78 278.94 397h2.81C442.1 562.05 444 561 396.64 394ZM811.79 305.15l-85.21-78.9H675.3c-2.9 10.18-12.72 44.2-25.3 88.19v79.65c0 7.13-5.06 10.05-11.26 6.5L627.36 394c-47.34 167-45.44 168-111 402.25-.44 1.74 1.46 2.25 2.81 0l278.92-397-42.33-45.77Z"/><path class="cls-1" d="M560.11 339.63 633.5 382a5.27 5.27 0 0 0 2.55.84c1.7 0 2-2.15 2-3.43V251.86c0-1.29-.25-3.44-1.94-3.44a5.22 5.22 0 0 0-2.55.83l-73 42.13a11 11 0 0 1 .46 3.18v40.71a11.33 11.33 0 0 1-.91 4.36ZM389 382.8a5.21 5.21 0 0 0 2.56-.84l73.36-42.37a11.33 11.33 0 0 1-.86-4.32v-40.72a11.06 11.06 0 0 1 .47-3.17l-73-42.14a5.19 5.19 0 0 0-2.54-.83c-1.71 0-2 2.15-2 3.43v127.53c.01 1.28.26 3.43 2.01 3.43ZM546.72 335.25A2.81 2.81 0 0 0 548 335v-40.15a8.59 8.59 0 0 1-1.35-.6H543v1h-65.72a2.75 2.75 0 0 0-1.28.28V335a2.87 2.87 0 0 0 1.3.27Z"/><path class="cls-2" d="M134.57 775.45c-8.48-17.56-10.9-36.94-10.9-56.93v-72.68c0-79.33-10.3-97.5-54.51-118.09v-31.5c43-20.59 54.51-38.76 54.51-118.09v-72.68c0-20 2.42-39.37 10.9-56.93 14.53-29.68 50.27-36.34 79.94-37.55v33.31C180 246.73 157 255.82 157 295.79v105.38c0 29.68-.61 76.91-46.64 110.83 46 30.28 46.64 83.58 46.64 113.25v103c0 40 23 49.06 57.53 51.48V813c-29.69-1.21-65.43-7.87-79.96-37.55ZM900.33 645.85v72.67c0 20-2.42 39.37-10.9 56.93-14.53 29.68-50.26 36.34-79.94 37.55v-33.31C844 777.26 867 768.18 867 728.21v-103c0-29.67.61-83 46.64-113.25-46-33.92-46.64-81.15-46.64-110.83V295.79c0-40-23-49.05-57.53-51.48V211c29.68 1.21 65.41 7.87 79.94 37.55 8.48 17.56 10.9 36.94 10.9 56.93v72.67c0 79.34 11.51 97.51 54.51 118.1v31.5c-44.19 20.59-54.49 38.76-54.49 118.1Z"/><path style="fill:none;stroke:#c1272d;stroke-linecap:round;stroke-linejoin:round;stroke-width:22.94px" d="m324.85 858.5 23.39-24 23.39 24 23.39-24 23.4 24 23.39-24 23.4 24 23.39-24 23.39 24 23.4-24 23.39 24 23.39-24 23.4 24 23.39-24 23.4 24 23.4-24 23.39 24"/></svg>
