<?xml version="1.0" encoding="utf-8"?>
<!-- Generator: Adobe Illustrator 20.1.0, SVG Export Plug-In . SVG Version: 6.00 Build 0)  -->
<svg version="1.1" id="layer1" xmlns="http://www.w3.org/2000/svg" xmlns:xlink="http://www.w3.org/1999/xlink" x="0px" y="0px"
	 viewBox="0 0 104.5 105.4" style="enable-background:new 0 0 104.5 105.4;" xml:space="preserve">
<style type="text/css">
	.st0{fill:#060606;}
	.st1{display:none;fill:none;}
	.st2{enable-background:new    ;}
	.st3{fill:#32CD32;}
	.st4{fill:#FFFFFF;}
</style>
<ellipse class="st0" cx="52.2" cy="52.7" rx="51" ry="51.3"/>
<rect x="28.2" y="42.7" class="st1" width="48" height="20.5"/>
<g class="st2">
	<path class="st3" d="M13.2,61c-0.7-0.4-1.1-0.5-1.5-0.9c-0.4-0.4-0.4-0.7-0.4-1.1c0-0.4,0.2-0.7,0.4-0.9s0.5-0.4,0.9-0.4
		c0.4,0,0.7,0.2,0.9,0.4s0.4,0.5,0.4,0.9c0,0.4-0.2,0.7-0.7,0.9c0.4,0.4,0.9,0.5,1.8,0.5c1.8,0,2.6-0.5,2.6-1.5
		c0-0.5-0.5-1.1-1.6-1.5c-0.4-0.2-0.9-0.4-1.5-0.5c-0.5-0.2-0.9-0.4-1.3-0.7c-0.4-0.4-0.5-0.7-0.5-1.3c0-0.7,0.2-1.3,0.7-1.8
		c0.9-0.9,2.2-1.5,4-1.5c0.9,0,1.6,0.2,2.2,0.5c0.7,0.4,0.9,0.7,0.9,1.3s-0.2,0.9-0.4,1.1s-0.5,0.4-0.9,0.4s-0.5-0.2-0.7-0.4
		c-0.2-0.2-0.4-0.4-0.4-0.7s0.2-0.5,0.5-0.9c-0.2-0.2-0.7-0.4-1.3-0.4c-0.5,0-1.1,0-1.6,0.2c-0.5,0.2-0.7,0.4-0.7,0.7
		s0.2,0.5,0.5,0.7c0.4,0.2,0.7,0.4,1.3,0.5c0.5,0.2,1.1,0.4,1.5,0.5c0.5,0.2,0.9,0.5,1.3,0.9s0.5,0.9,0.5,1.6c0,0.5-0.2,1.1-0.7,1.6
		c-0.9,0.9-2.2,1.5-4,1.5C14.6,61.3,13.9,61.2,13.2,61z"/>
</g>
<g class="st2">
	<path class="st3" d="M23.6,52c1.1-3.3,2.2-6,3.3-8.2l2,0.2c-0.2,0.4-0.4,1.1-0.9,2.4c-0.9,2.7-1.6,4.8-1.8,5.9h2.4l-0.2,1.1h-2.6
		c-0.9,2.9-1.5,4.8-1.5,5.3c0,0.5,0,0.9,0.2,0.9c0.2,0,0.2,0,0.4,0c0.4-0.2,0.9-0.9,1.8-2.2l0.5,0.5c-0.7,1.3-1.5,2.2-2.2,2.7
		c-0.7,0.5-1.3,0.9-1.8,0.9c-0.5,0-0.9-0.2-1.1-0.5c-0.2-0.4-0.4-0.7-0.4-1.3c0-1.3,0.5-3.5,1.5-6.4h-1.6l0.2-1.1
		C22,52,23.6,52,23.6,52z"/>
</g>
<g class="st2">
	<path class="st3" d="M29.3,55.7l-1.1-0.5c0.5-0.9,1.1-1.6,2-2.4c0.7-0.7,1.5-1.1,2-1.1c0.9,0,1.5,0.4,1.5,1.3
		c0,0.4-0.2,1.3-0.7,2.7s-0.7,2.4-0.7,2.7c0,0.4,0,0.5,0,0.7c0,0.2,0.2,0.2,0.4,0.2c0.9,0,1.8-0.4,2.9-1.1c0.9-0.7,1.6-1.5,2-2.4
		l1.1-3.1c0.2-0.4,0.4-0.5,0.5-0.7c0.2-0.2,0.5-0.4,0.7-0.4c0.2,0,0.4,0,0.5,0.2c0.2,0.2,0.2,0.4,0.2,0.5c0,0.2,0,0.5-0.2,0.7
		l-1.1,3.5c-0.7,2-1.6,4-3.1,6c1.1,0.2,2.2,0.4,3.1,0.5l-0.2,0.9c-1.5-0.4-2.7-0.5-3.8-0.5c-0.9,1.3-2,2.4-3.1,3.1
		c-1.1,0.7-2,1.1-2.7,1.1s-1.3-0.2-1.8-0.5c-0.4-0.4-0.5-0.7-0.5-1.3s0.2-1.1,0.5-1.5c0.4-0.4,0.9-0.7,1.6-1.1
		c1.5-0.5,3.1-0.9,4.8-0.9c0.2-0.2,0.5-0.7,1.1-1.8c0.5-0.9,0.9-1.6,0.9-1.8c-1.8,1.5-3.5,2.4-4.8,2.4c-0.5,0-0.9-0.2-1.3-0.5
		c-0.2-0.4-0.4-0.9-0.4-1.5c0-0.5,0.2-1.5,0.7-2.9c0.4-1.5,0.7-2.2,0.7-2.4s0-0.4-0.2-0.4c-0.2,0-0.2,0-0.4,0
		c-0.2,0-0.2,0.2-0.4,0.2C30,53.8,30,53.8,30,54c0,0-0.2,0.2-0.2,0.4c-0.2,0.2-0.2,0.2-0.2,0.4C29.5,55.3,29.3,55.5,29.3,55.7z
		 M33.7,63.7c-0.9,0-1.6,0.2-2.6,0.4c-1.6,0.5-2.6,1.1-2.6,1.6c0,0.4,0.2,0.5,0.7,0.5c0.5,0,1.3-0.4,2.4-1.1
		C32.8,64.6,33.5,64.1,33.7,63.7z"/>
</g>
<g class="st2">
	<path class="st3" d="M46.7,40.3h2.4c-0.4,0.7-1.1,2.4-2,5.1c-0.9,2.6-1.8,5.3-2.6,7.9c-0.7,2.7-1.1,4.2-1.1,4.9
		c0,0.7,0,0.9,0.2,0.9c0.4,0,1.1-0.7,2-2l0.7,0.5c-0.4,0.7-0.9,1.5-1.5,2c-0.9,0.9-1.6,1.5-2.2,1.5c-1.1,0-1.6-0.5-1.6-1.8
		c0-1.8,0.5-4.9,1.8-9C44.1,46.3,45.4,43,46.7,40.3z"/>
</g>
<g class="st2">
	<path class="st3" d="M50,57.9c0,1.1,0.9,1.8,2.4,1.8c0.5,0,1.1-0.2,1.8-0.5c0.5-0.4,1.1-0.7,1.5-1.1l0.7,0.4
		c-0.9,1.5-2.2,2.4-4,2.6c-0.4,0-0.7,0.2-1.3,0.2c-1.1,0-2-0.4-2.7-1.1c-0.7-0.7-1.1-1.6-1.1-2.7c0-1.1,0.4-2,0.9-2.9
		c0.7-0.9,1.5-1.6,2.4-2c0.9-0.5,2-0.7,2.9-0.7s1.8,0.2,2.6,0.7c0.7,0.4,1.1,1.1,1.1,1.8S57,55.5,56.4,56c-0.5,0.5-1.1,0.9-1.6,1.3
		c-1.3,0.5-2.7,0.7-4,0.7L50,57.9z M50,57.1c1.1,0,2-0.2,2.7-0.5s1.1-0.7,1.5-1.1c0.2-0.4,0.4-0.9,0.4-1.3c0-0.4-0.2-0.7-0.4-1.1
		c-0.2-0.2-0.5-0.4-0.7-0.4c-0.7,0-1.3,0.2-1.8,0.7c-0.5,0.5-0.9,1.1-1.3,1.6C50,55.8,50,56.4,50,57.1z"/>
</g>
<g class="st2">
	<path class="st4" d="M63.6,40.3h2.6c-0.4,0.7-1.1,2.4-2,5.1s-1.8,5.3-2.6,7.9c-0.7,2.7-1.1,4.2-1.1,4.9c0,0.7,0,0.9,0.2,0.9
		c0.4,0,1.1-0.7,2-2l0.7,0.5c-0.4,0.7-0.9,1.5-1.5,2c-0.9,0.9-1.6,1.5-2.2,1.5c-1.1,0-1.6-0.5-1.6-1.8c0-1.8,0.5-4.9,1.8-9
		C61.2,46.3,62.3,43,63.6,40.3z"/>
</g>
<g class="st2">
	<path class="st4" d="M66.9,61.3c-0.4,0-0.7-0.2-1.1-0.4c-0.2-0.4-0.2-0.7-0.2-1.3s0.2-1.1,0.4-2c0.2-0.9,0.5-1.5,0.7-2.2
		c0.2-0.7,0.4-1.1,0.4-1.3c0-0.2,0-0.4-0.2-0.4c-0.4,0-0.9,0.7-1.8,2.2l-1.1-0.5c1.5-2.6,2.9-3.8,4.2-3.8c0.9,0,1.3,0.5,1.3,1.6
		c0,0.4-0.2,0.9-0.4,1.5L68,57.9c-0.2,0.4-0.2,0.5-0.2,0.7S68,59,68.1,59c0.4,0,0.9-0.7,2-2l0.7,0.5c-0.5,1.1-1.3,1.8-2,2.6
		C68,61,67.4,61.3,66.9,61.3z M71.3,47c0,0.4-0.2,0.7-0.4,1.1c-0.4,0.4-0.7,0.5-1.1,0.5c-0.5,0-0.9-0.2-1.1-0.4
		c-0.2-0.4-0.4-0.7-0.4-1.1c0-0.4,0.2-0.7,0.4-1.1c0.2-0.4,0.7-0.5,1.1-0.5c0.5,0,0.7,0.2,1.1,0.4C71.3,46.1,71.3,46.7,71.3,47z"/>
</g>
<g class="st2">
	<path class="st4" d="M75.8,56.6c2.2-3.3,4-4.9,5.9-4.9c0.5,0,1.1,0.2,1.3,0.5c0.2,0.4,0.4,0.7,0.4,1.3c0,0.5-0.2,1.5-0.7,2.7
		c-0.5,1.3-0.7,2.2-0.7,2.4c0,0.4,0,0.5,0.2,0.5s0.5-0.2,0.9-0.7c0.4-0.4,0.7-0.9,1.1-1.3l0.7,0.5c-0.5,1.1-1.3,2-2,2.6
		c-0.7,0.5-1.3,0.9-1.8,0.9s-0.7-0.2-1.1-0.4c-0.2-0.4-0.4-0.7-0.4-1.3c0-0.5,0.2-1.5,0.5-2.6s0.5-2,0.5-2.6s-0.2-0.7-0.5-0.7
		s-0.9,0.2-1.5,0.7s-1.1,1.1-1.6,1.8c-0.7,1.1-1.6,2.6-2.4,4L74.2,61H72l0.5-1.5c0.9-2.7,1.3-4.2,1.3-4.8c0-0.5,0-0.7-0.2-0.7
		c-0.4,0-0.7,0.4-1.1,1.1c-0.2,0.2-0.2,0.4-0.2,0.4s-0.2,0.2-0.2,0.4C72.2,56,72,56,72,56l-0.9-0.5c0.7-1.3,1.5-2.2,2.2-2.9
		c0.7-0.5,1.3-0.9,2-0.9c0.4,0,0.5,0.2,0.9,0.4c0.2,0.2,0.4,0.5,0.4,0.9s0,0.7-0.2,1.1c0,0.4-0.2,0.7-0.2,0.9c0,0.2-0.2,0.5-0.2,0.9
		C75.8,56.4,75.8,56.6,75.8,56.6z"/>
</g>
<g class="st2">
	<path class="st4" d="M87.6,52c1.1-3.3,2.2-6,3.3-8.2l2,0.2c-0.2,0.4-0.4,1.1-0.9,2.4c-0.9,2.7-1.6,4.8-1.8,5.9h2.4l-0.2,1.1h-2.6
		c-0.9,2.9-1.5,4.8-1.5,5.3c0,0.5,0,0.9,0.2,0.9c0.2,0,0.2,0,0.4,0c0.4-0.2,0.9-0.9,1.8-2.2l0.5,0.5c-0.7,1.3-1.5,2.2-2.2,2.7
		c-0.7,0.5-1.3,0.9-1.8,0.9s-0.9-0.2-1.1-0.5c-0.2-0.4-0.4-0.9-0.4-1.5c0-1.3,0.5-3.5,1.5-6.4h-1.6l0.2-1.1C85.7,52,87.6,52,87.6,52
		z"/>
</g>
</svg>
