<?xml version="1.0" encoding="utf-8"?>
<!-- Generator: Adobe Illustrator 16.0.4, SVG Export Plug-In . SVG Version: 6.00 Build 0)  -->
<!DOCTYPE svg PUBLIC "-//W3C//DTD SVG 1.1//EN" "http://www.w3.org/Graphics/SVG/1.1/DTD/svg11.dtd">
<svg version="1.1" id="layer1" xmlns="http://www.w3.org/2000/svg" xmlns:xlink="http://www.w3.org/1999/xlink" x="0px" y="0px"
	 width="55.5px" height="56px" viewBox="0 0 55.5 56" enable-background="new 0 0 55.5 56" xml:space="preserve">
<ellipse fill="#060606" cx="27.749" cy="28" rx="27.75" ry="28"/>
<rect x="3.055" y="17.718" fill="none" width="49.114" height="21.031"/>
<g enable-background="new    ">
	<path fill="#32CD32" d="M6.396,32.46c-0.37-0.13-0.635-0.284-0.793-0.462c-0.158-0.179-0.237-0.375-0.237-0.59
		s0.059-0.393,0.178-0.534c0.119-0.142,0.276-0.212,0.471-0.212c0.195,0,0.367,0.058,0.517,0.174s0.225,0.279,0.225,0.492
		c0,0.212-0.13,0.389-0.39,0.529c0.215,0.188,0.542,0.28,0.984,0.28c0.956,0,1.434-0.271,1.434-0.814
		c0-0.339-0.303-0.61-0.908-0.814c-0.249-0.085-0.499-0.175-0.751-0.271C6.875,30.142,6.655,30,6.469,29.813S6.18,29.4,6.164,29.135
		c0-0.385,0.127-0.709,0.381-0.976c0.481-0.509,1.199-0.763,2.155-0.763c0.469,0,0.885,0.089,1.247,0.267
		c0.362,0.179,0.543,0.409,0.543,0.691c0,0.283-0.072,0.486-0.216,0.61c-0.145,0.125-0.313,0.188-0.505,0.188
		c-0.192,0-0.355-0.053-0.488-0.157s-0.199-0.25-0.199-0.437c0-0.188,0.11-0.349,0.331-0.484c-0.136-0.096-0.37-0.144-0.704-0.144
		c-0.333,0-0.633,0.049-0.899,0.148c-0.266,0.099-0.399,0.233-0.399,0.402c0,0.17,0.098,0.312,0.293,0.425
		c0.195,0.113,0.431,0.218,0.708,0.313c0.277,0.097,0.554,0.207,0.832,0.331c0.277,0.124,0.513,0.303,0.708,0.534
		c0.195,0.232,0.293,0.518,0.293,0.856c0,0.34-0.139,0.647-0.416,0.925c-0.526,0.526-1.245,0.789-2.155,0.789
		C7.192,32.655,6.767,32.59,6.396,32.46z"/>
</g>
<g enable-background="new    ">
	<path fill="#32CD32" d="M12.143,27.583c0.582-1.81,1.176-3.325,1.781-4.547l1.052,0.085c-0.062,0.181-0.215,0.616-0.458,1.306
		C13.992,25.948,13.653,27,13.5,27.583h1.332l-0.136,0.56h-1.375c-0.52,1.606-0.78,2.583-0.78,2.931s0.035,0.521,0.106,0.521
		s0.134-0.014,0.191-0.042c0.153-0.085,0.48-0.498,0.984-1.238l0.348,0.313c-0.379,0.69-0.77,1.2-1.171,1.531
		s-0.732,0.496-0.992,0.496c-0.26,0-0.457-0.091-0.59-0.271s-0.199-0.413-0.199-0.695c0-0.719,0.251-1.9,0.755-3.546h-0.891
		l0.136-0.56H12.143z"/>
</g>
<g enable-background="new    ">
	<path fill="#32CD32" d="M15.196,29.585l-0.552-0.331c0.283-0.492,0.635-0.925,1.056-1.298s0.799-0.56,1.132-0.56
		c0.543,0,0.814,0.243,0.814,0.729c0,0.203-0.14,0.698-0.42,1.484c-0.28,0.786-0.42,1.283-0.42,1.492
		c0,0.21,0.014,0.344,0.042,0.403s0.09,0.089,0.187,0.089c0.515,0,1.045-0.193,1.591-0.581c0.545-0.387,0.9-0.815,1.064-1.285
		l0.594-1.73c0.062-0.175,0.158-0.313,0.289-0.415c0.13-0.103,0.256-0.153,0.377-0.153s0.22,0.04,0.297,0.119
		c0.076,0.079,0.114,0.184,0.114,0.313c0,0.131-0.025,0.267-0.076,0.407l-0.645,1.884c-0.356,1.108-0.908,2.199-1.654,3.273
		c0.65,0.068,1.23,0.185,1.739,0.349l-0.068,0.475c-0.78-0.158-1.47-0.252-2.069-0.28c-0.549,0.707-1.11,1.271-1.684,1.692
		c-0.574,0.422-1.075,0.632-1.501,0.632s-0.747-0.086-0.958-0.259c-0.212-0.172-0.318-0.408-0.318-0.708s0.113-0.572,0.339-0.818
		c0.227-0.246,0.529-0.445,0.908-0.598c0.769-0.317,1.651-0.498,2.647-0.543c0.079-0.091,0.268-0.409,0.568-0.955
		c0.299-0.545,0.46-0.889,0.483-1.03c-1.001,0.849-1.883,1.272-2.646,1.272c-0.312,0-0.538-0.106-0.679-0.318
		c-0.142-0.212-0.212-0.474-0.212-0.784c0-0.312,0.118-0.845,0.352-1.6c0.235-0.755,0.352-1.185,0.352-1.289
		s-0.024-0.157-0.072-0.157c-0.048,0-0.101,0.013-0.157,0.038c-0.057,0.026-0.112,0.065-0.165,0.119
		c-0.054,0.054-0.104,0.104-0.149,0.152c-0.045,0.049-0.095,0.115-0.148,0.2c-0.054,0.084-0.095,0.149-0.123,0.194
		C15.306,29.397,15.23,29.522,15.196,29.585z M17.647,33.97c-0.458,0.028-0.924,0.11-1.399,0.246
		c-0.917,0.261-1.375,0.565-1.375,0.916c0,0.21,0.13,0.314,0.39,0.314c0.26,0,0.685-0.188,1.272-0.564
		C17.125,34.506,17.495,34.202,17.647,33.97z"/>
</g>
<g enable-background="new    ">
	<path fill="#32CD32" d="M24.658,21.237h1.374c-0.243,0.419-0.617,1.348-1.12,2.787c-0.503,1.439-0.963,2.887-1.378,4.343
		c-0.416,1.456-0.624,2.347-0.624,2.672s0.04,0.488,0.119,0.488c0.237,0,0.608-0.359,1.111-1.077l0.356,0.339
		c-0.249,0.43-0.517,0.792-0.806,1.086c-0.509,0.521-0.922,0.78-1.238,0.78c-0.577,0-0.865-0.348-0.865-1.043
		c0-1.035,0.343-2.667,1.03-4.895C23.305,24.489,23.985,22.663,24.658,21.237z"/>
</g>
<g enable-background="new    ">
	<path fill="#32CD32" d="M26.507,30.849c0.034,0.65,0.472,0.976,1.314,0.976c0.311,0,0.635-0.089,0.971-0.268
		c0.336-0.178,0.609-0.389,0.818-0.632l0.365,0.237c-0.47,0.786-1.219,1.267-2.248,1.442c-0.226,0.034-0.444,0.051-0.653,0.051
		c-0.61,0-1.12-0.202-1.527-0.606c-0.407-0.404-0.61-0.897-0.61-1.48c0-0.582,0.178-1.121,0.534-1.616
		c0.356-0.494,0.802-0.878,1.336-1.149c0.535-0.271,1.062-0.406,1.583-0.406c0.52,0,0.971,0.118,1.353,0.355
		c0.382,0.238,0.577,0.558,0.585,0.959c0.009,0.401-0.108,0.748-0.352,1.039s-0.551,0.513-0.925,0.666
		c-0.741,0.3-1.467,0.449-2.18,0.449L26.507,30.849z M26.456,30.382c0.628-0.022,1.133-0.123,1.514-0.301
		c0.381-0.179,0.647-0.382,0.797-0.611c0.15-0.229,0.225-0.469,0.225-0.721s-0.064-0.438-0.195-0.56
		c-0.129-0.122-0.268-0.183-0.415-0.183c-0.362,0-0.694,0.126-0.997,0.377c-0.303,0.252-0.533,0.558-0.691,0.917
		C26.535,29.659,26.456,30.021,26.456,30.382z"/>
</g>
<g enable-background="new    ">
	<path fill="#FFFFFF" d="M33.922,21.237h1.375c-0.244,0.419-0.617,1.348-1.12,2.787s-0.963,2.887-1.378,4.343
		c-0.416,1.456-0.624,2.347-0.624,2.672s0.04,0.488,0.118,0.488c0.238,0,0.608-0.359,1.111-1.077l0.356,0.339
		c-0.249,0.43-0.517,0.792-0.806,1.086c-0.509,0.521-0.922,0.78-1.238,0.78c-0.577,0-0.865-0.348-0.865-1.043
		c0-1.035,0.344-2.667,1.03-4.895C32.569,24.489,33.249,22.663,33.922,21.237z"/>
</g>
<g enable-background="new    ">
	<path fill="#FFFFFF" d="M35.725,32.655c-0.24,0-0.428-0.073-0.564-0.221c-0.135-0.146-0.203-0.349-0.203-0.606
		c0-0.257,0.066-0.607,0.199-1.052s0.266-0.847,0.398-1.209c0.133-0.361,0.199-0.604,0.199-0.725c0-0.122-0.039-0.183-0.118-0.183
		c-0.198,0-0.518,0.39-0.959,1.17l-0.567-0.33c0.83-1.402,1.594-2.104,2.289-2.104c0.476,0,0.713,0.3,0.713,0.898
		c0,0.176-0.057,0.455-0.17,0.84l-0.61,1.748c-0.062,0.164-0.093,0.312-0.093,0.445s0.051,0.199,0.152,0.199
		c0.191,0,0.545-0.356,1.061-1.069l0.355,0.331c-0.305,0.565-0.668,1.018-1.09,1.357C36.296,32.485,35.965,32.655,35.725,32.655z
		 M38.138,24.89c0,0.229-0.076,0.437-0.229,0.623c-0.152,0.187-0.358,0.28-0.619,0.28c-0.26,0-0.455-0.078-0.584-0.233
		c-0.131-0.155-0.195-0.353-0.195-0.59s0.08-0.448,0.241-0.632s0.369-0.275,0.624-0.275c0.254,0,0.445,0.08,0.572,0.241
		S38.138,24.66,38.138,24.89z"/>
</g>
<g enable-background="new    ">
	<path fill="#FFFFFF" d="M40.58,30.136c1.183-1.826,2.242-2.739,3.182-2.739c0.316,0,0.555,0.096,0.713,0.288
		s0.237,0.436,0.237,0.729s-0.132,0.803-0.395,1.526c-0.263,0.725-0.395,1.173-0.395,1.345c0,0.173,0.042,0.259,0.128,0.259
		c0.112,0,0.279-0.117,0.5-0.352c0.221-0.235,0.416-0.482,0.585-0.742l0.356,0.339c-0.34,0.616-0.711,1.082-1.115,1.396
		s-0.732,0.471-0.984,0.471s-0.448-0.084-0.59-0.25c-0.141-0.167-0.211-0.395-0.211-0.684c0-0.288,0.113-0.759,0.343-1.412
		s0.344-1.116,0.344-1.391s-0.093-0.412-0.28-0.412c-0.215,0-0.469,0.138-0.764,0.412c-0.293,0.274-0.579,0.609-0.856,1.005
		c-0.44,0.634-0.891,1.363-1.349,2.188l-0.229,0.407h-1.196l0.263-0.798c0.492-1.47,0.738-2.342,0.738-2.616
		s-0.045-0.411-0.136-0.411c-0.165,0-0.359,0.194-0.585,0.585c-0.051,0.091-0.094,0.162-0.128,0.216s-0.071,0.119-0.114,0.195
		s-0.069,0.123-0.08,0.14l-0.568-0.33c0.44-0.719,0.845-1.249,1.213-1.591c0.367-0.342,0.743-0.513,1.128-0.513
		c0.175,0,0.326,0.073,0.454,0.22c0.127,0.147,0.19,0.325,0.19,0.535c0,0.209-0.017,0.414-0.051,0.614
		c-0.034,0.201-0.069,0.368-0.106,0.501s-0.084,0.304-0.145,0.513C40.619,29.989,40.586,30.107,40.58,30.136z"/>
</g>
<g enable-background="new    ">
	<path fill="#FFFFFF" d="M46.965,27.583c0.582-1.81,1.176-3.325,1.781-4.547l1.053,0.085c-0.062,0.181-0.215,0.616-0.459,1.306
		c-0.525,1.521-0.865,2.573-1.018,3.156h1.332l-0.136,0.56h-1.374c-0.521,1.606-0.781,2.583-0.781,2.931s0.035,0.521,0.106,0.521
		s0.134-0.014,0.19-0.042c0.153-0.085,0.48-0.498,0.984-1.238l0.348,0.313c-0.379,0.69-0.77,1.2-1.17,1.531
		c-0.402,0.331-0.732,0.496-0.992,0.496c-0.261,0-0.457-0.091-0.59-0.271s-0.199-0.413-0.199-0.695c0-0.719,0.251-1.9,0.754-3.546
		h-0.891l0.137-0.56H46.965z"/>
</g>
</svg>
